<svg _ngcontent-oyd-c61="" xmlns="http://www.w3.org/2000/svg" version="1.0" width="203.000000pt" height="251.000000pt" viewBox="0 0 203.000000 251.000000" preserveAspectRatio="xMidYMid meet"><g _ngcontent-oyd-c61="" transform="translate(0.000000,251.000000) scale(0.100000,-0.100000)" fill="#000000" stroke="none"><path _ngcontent-oyd-c61="" d="M872 2400 c-171 -24 -345 -113 -474 -242 -57 -57 -168 -214 -168 -238 0 -6 -5 -8 -12 -4 -6 4 -8 3 -4 -4 3 -6 -3 -35 -14 -65 -142 -380 26 -830 386 -1030 264 -147 600 -142 851 13 355 218 499 632 359 1025 -40 110 -95 195 -190 293 -115 119 -257 203 -398 237 -79 19 -253 27 -336 15z m-2 -169 l0 -69 -32 -7 c-18 -4 -64 -21 -101 -38 l-68 -30 -45 44 c-24 24 -44 46 -44 49 0 22 220 116 278 119 8 1 12 -19 12 -68z m333 54 c68 -18 140 -52 133 -64 -7 -10 22 -37 52 -48 22 -8 21 -9 -17 -47 l-40 -39 -68 30 c-37 17 -83 34 -100 38 l-33 7 0 69 c0 38 4 69 8 69 4 0 34 -7 65 -15z m-80 -230 c231 -60 387 -262 387 -500 0 -142 -46 -250 -150 -356 -104 -106 -208 -149 -361 -149 -106 0 -192 24 -275 78 -311 203 -313 648 -3 861 106 73 271 100 402 66z m-669 -208 c-17 -34 -38 -81 -45 -104 l-12 -43 -68 0 -68 0 6 33 c13 70 73 203 112 250 14 17 18 15 61 -28 l47 -46 -33 -62z m1189 101 c35 -56 80 -161 92 -215 l7 -33 -70 0 -69 0 -12 43 c-7 23 -27 70 -45 104 l-33 61 46 46 c25 25 47 46 48 46 2 0 18 -24 36 -52z m-1243 -540 c6 -24 25 -74 42 -111 l31 -68 -43 -44 c-24 -25 -47 -45 -51 -45 -25 0 -119 226 -119 284 0 25 2 26 65 26 l64 0 11 -42z m1340 18 c0 -62 -93 -286 -118 -286 -4 0 -27 20 -51 44 l-44 45 26 55 c14 30 33 79 42 110 l16 56 65 0 c61 0 64 -1 64 -24z m-1016 -419 c37 -18 64 -35 61 -38 -2 -3 3 -6 13 -6 74 1 72 3 72 -73 0 -83 0 -83 -108 -46 -70 24 -146 61 -187 92 -18 14 -17 16 25 59 24 25 47 45 51 45 4 0 37 -15 73 -33z m674 -10 c23 -23 42 -46 42 -49 0 -24 -234 -127 -288 -128 -22 0 -23 3 -20 65 l3 66 68 24 c37 13 82 32 100 44 17 11 37 21 42 21 6 0 30 -19 53 -43z"/><path _ngcontent-oyd-c61="" d="M911 1967 c-6 -6 -11 -27 -11 -47 0 -27 -7 -43 -31 -66 -44 -42 -59 -76 -59 -134 0 -107 79 -190 180 -190 52 0 96 -22 115 -60 53 -102 -53 -208 -155 -155 -32 17 -50 44 -59 89 -13 59 -71 57 -71 -3 1 -34 32 -101 59 -125 16 -15 21 -31 21 -71 0 -46 12 -75 31 -75 19 0 39 35 39 66 0 31 3 34 29 34 28 0 30 -3 33 -41 6 -87 68 -75 68 13 0 42 4 53 25 70 14 11 33 34 42 51 19 36 33 139 20 153 -4 5 -18 25 -30 44 -30 46 -91 80 -145 80 -82 0 -132 48 -132 126 0 54 53 104 110 104 58 0 96 -29 113 -88 16 -54 38 -72 61 -53 31 26 13 97 -37 157 -19 23 -27 43 -27 72 0 72 -61 84 -68 13 -3 -27 -7 -31 -33 -31 -23 0 -29 4 -29 23 0 39 -36 67 -59 44z"/><path _ngcontent-oyd-c61="" d="M193 671 c-67 -20 -127 -40 -131 -46 -9 -10 19 -301 36 -375 9 -40 -1 -37 322 -95 80 -14 204 -37 275 -50 233 -43 309 -55 348 -55 30 0 117 39 385 174 510 256 492 246 509 284 27 64 -16 132 -83 132 -17 0 -171 -47 -342 -105 -171 -58 -317 -105 -325 -105 -9 0 -17 -15 -21 -41 -5 -28 -18 -53 -40 -75 -51 -51 -66 -50 -331 23 -212 58 -245 75 -226 112 17 30 40 27 239 -29 220 -63 244 -67 265 -45 9 9 17 20 17 25 0 21 -41 50 -105 73 -217 79 -664 237 -667 236 -2 -1 -58 -18 -125 -38z"/></g></svg>