<svg _ngcontent-oyd-c61="" xmlns="http://www.w3.org/2000/svg" viewBox="0 0 20.492 20.213" width="20.492" height="20.213"><g _ngcontent-oyd-c61="" id="Group_5" transform="translate(-1048.44 -677.007)" data-name="Group 5"><path _ngcontent-oyd-c61="" id="Path_1" fill="#7397aa" transform="matrix(0.999 -0.035 0.035 0.999 -105.356 486.692)" d="M 1152.5 236.076 l -2.836 -2.865 l -1.395 1.5 l 2.906 2.75 Z" data-name="Path 1"/><path _ngcontent-oyd-c61="" id="Path_2" fill="#7397aa" transform="translate(-196.846 502.039)" d="M 1253.96 179.027 l 0.032 -4.06 h 1.962 v 4.06 Z" data-name="Path 2"/><path _ngcontent-oyd-c61="" id="Path_3" fill="#7397aa" transform="translate(-260.071 446.202)" d="M 1321.85 235.486 l 2.922 -2.719 l 1.382 1.337 l -2.824 2.816 Z" data-name="Path 3"/><path _ngcontent-oyd-c61="" id="Path_4" fill="#7397aa" transform="translate(-276.49 302.27) rotate(2)" d="M 1353.91 337.163 h 4.114 v 2.017 h -4.114 Z" data-name="Path 4"/><path _ngcontent-oyd-c61="" id="Path_5" fill="#7397aa" transform="translate(-278.116 356.904) rotate(-3)" d="M 1322.23 403.9 l 2.734 2.891 l -1.347 1.306 l -2.828 -2.937 Z" data-name="Path 5"/><path _ngcontent-oyd-c61="" id="Path_6" fill="#7397aa" transform="translate(-172.051 190.723) rotate(3)" d="M 1256.29 441.353 h -2.068 v -4.01 h 2.068 Z" data-name="Path 6"/><path _ngcontent-oyd-c61="" id="Path_7" fill="#7397aa" transform="translate(-97.844 287.169)" d="M 1148.58 406.362 l 2.859 -2.672 l 1.375 1.391 l -2.891 2.75 Z" data-name="Path 7"/><path _ngcontent-oyd-c61="" id="Path_8" fill="#7397aa" transform="translate(-43.516 349.672)" d="M 1096.03 336.995 v 1.847 h -4.067 v -1.929 l 4.067 -0.012 Z" data-name="Path 8"/><path _ngcontent-oyd-c61="" id="Path_9" fill="#7397aa" transform="translate(-145.675 399.078)" d="M 1204.45 282.989 a 4.294 4.294 0 0 1 0.63 5.242 c -1.766 2.915 -5.721 1.095 -5.721 1.095 a 5.148 5.148 0 0 1 1.081 -4.489 A 4.769 4.769 0 0 1 1204.45 282.989 Z" data-name="Path 9"/><path _ngcontent-oyd-c61="" id="Path_10" fill="#7397aa" transform="translate(-155.716 395.389)" d="M 1210.21 294.473 a 5.864 5.864 0 0 0 2.981 0.093 a 5.32 5.32 0 0 0 2.915 -2.276 a 4.867 4.867 0 0 0 -0.066 -5.217 a 5.013 5.013 0 0 1 1.85 1.131 c 1.224 1.164 2.413 3.336 0.665 6.362 a 5.214 5.214 0 0 1 -6.469 1.677 A 3.678 3.678 0 0 1 1210.21 294.473 Z" data-name="Path 10"/></g></svg>