<svg _ngcontent-oyd-c61="" xmlns="http://www.w3.org/2000/svg" viewBox="0 0 357.058 475.569" width="16" height="21"><g _ngcontent-oyd-c61="" id="tap" transform="translate(-0.284)"><path _ngcontent-oyd-c61="" id="Path_1" fill="#242424" d="M 318.918 187.566 h -0.668 a 36.676 36.676 0 0 0 -24.719 9.4 c -5.492 -15.2 -19.449 -26.125 -35.8 -26.125 A 37.139 37.139 0 0 0 231.2 182.254 c -6.383 -12.922 -19.187 -21.687 -33.91 -21.687 h -0.711 a 34.815 34.815 0 0 0 -21.832 7.273 V 75.718 c 0 -22.262 -17.332 -40.371 -38.414 -40.371 c -21.059 0 -38.3 18.1 -38.313 40.344 l -0.176 182.773 L 87.5 245.9 a 52.171 52.171 0 0 0 -36.867 -19.363 A 51.334 51.334 0 0 0 12.18 240.148 l -9 7.457 a 8 8 0 0 0 -1.992 9.852 l 87.5 168.2 c 16 30.738 46.441 49.914 79.445 49.914 H 266.75 v -0.086 c 50 0 90.539 -43.387 90.59 -96.66 c 0.02 -23.836 -0.07 -41.6 -0.055 -56 c 0.051 -38.523 0.012 -52.738 -0.086 -95.18 c -0.051 -22.211 -17.258 -40.078 -38.281 -40.078 Z m 22.25 135.2 c -0.016 14.4 -0.039 32.238 -0.062 56.074 c -0.043 44.465 -33.609 80.723 -74.824 80.723 H 168.141 c -27.016 0 -52.02 -15.879 -65.25 -41.3 L 18.363 255.839 l 4.172 -3.48 c 0.105 -0.086 0.207 -0.187 0.309 -0.277 A 35.512 35.512 0 0 1 49.508 242.5 a 36.3 36.3 0 0 1 25.609 13.563 l 24.488 29.8 a 8 8 0 0 0 14.18 -5.07 L 113.93 75.7 c 0.008 -13.43 10.164 -24.355 22.414 -24.355 S 158.75 62.28 158.75 75.718 v 123.66 c 0 0.43 -0.02 0.863 -0.02 1.3 c 0 0.188 0.02 0.379 0.02 0.563 v 52.871 a 8 8 0 1 0 16 0 V 199.647 c 0 -12.957 9.9 -23.082 21.832 -23.082 h 0.711 c 12.258 0 22.457 10.684 22.457 24.121 v 48.379 a 8 8 0 1 0 16 0 V 211.108 c 0 -13.441 9.711 -24.375 22.035 -24.375 c 12.254 0 21.965 10.93 21.965 24.375 v 35.809 a 8 8 0 0 0 16 0 V 227.526 c 0 -13.441 10.242 -23.961 22.5 -23.961 h 0.668 c 12.227 0 22.191 10.7 22.223 24.1 c 0.1 42.41 0.078 56.609 0.027 95.105 Z m 0 0" data-name="Path 1"/><path _ngcontent-oyd-c61="" id="Path_2" fill="#242424" d="M 72.609 79.172 a 8 8 0 0 0 8 -8 a 55.438 55.438 0 0 1 110.875 0 a 8 8 0 1 0 16 0 a 71.438 71.438 0 0 0 -142.875 0 a 8 8 0 0 0 8 8 Z m 0 0" data-name="Path 2"/></g></svg>