<svg _ngcontent-oyd-c61="" xmlns="http://www.w3.org/2000/svg" viewBox="0 0 25.24 25.178" width="25.24" height="25.178"><g _ngcontent-oyd-c61="" id="Group_3" transform="translate(-1073.83 -675.943)" data-name="Group 3"><path _ngcontent-oyd-c61="" id="Path_1" fill="#ff9b09" transform="translate(-45.888 400.063) rotate(3)" d="M 1141.64 223.276 l -3.852 -3.944 l -1.547 1.393 l 4.01 4.025 Z" data-name="Path 1"/><path _ngcontent-oyd-c61="" id="Path_2" fill="#ff9b09" transform="translate(-168.174 500.976)" d="M 1253.96 180.713 l 0.032 -5.746 h 1.968 v 5.746 Z" data-name="Path 2"/><path _ngcontent-oyd-c61="" id="Path_3" fill="#ff9b09" transform="translate(-218.06 390.752) rotate(3)" d="M 1322.36 223.379 l 3.844 -3.988 l 1.53 1.422 l -3.893 3.928 Z" data-name="Path 3"/><path _ngcontent-oyd-c61="" id="Path_4" fill="#ff9b09" transform="matrix(0.998 0.07 -0.07 0.998 -233.764 256.876)" d="M 1353.91 337.163 h 5.756 v 1.966 h -5.756 Z" data-name="Path 4"/><path _ngcontent-oyd-c61="" id="Path_5" fill="#ff9b09" transform="translate(-206.814 219.648) rotate(3)" d="M 1321.94 404.826 l 4.019 4.007 l -1.386 1.431 l -4.057 -3.965 Z" data-name="Path 5"/><path _ngcontent-oyd-c61="" id="Path_6" fill="#ff9b09" transform="matrix(0.995 0.105 -0.105 0.995 -116.358 129.195)" d="M 1256.27 443.038 h -2.045 v -5.7 h 2.045 Z" data-name="Path 6"/><path _ngcontent-oyd-c61="" id="Path_7" fill="#ff9b09" transform="translate(-36.146 229.555) rotate(3)" d="M 1135.53 407.825 l 4.144 -4 l 1.391 1.443 l -4.045 4.03 Z" data-name="Path 7"/><path _ngcontent-oyd-c61="" id="Path_8" fill="#ff9b09" transform="matrix(0.998 0.07 -0.07 0.998 8.164 274.816)" d="M 1097.66 337 v 1.858 h -5.7 v -1.94 l 5.7 -0.012 Z" data-name="Path 8"/><path _ngcontent-oyd-c61="" id="Path_9" fill="#ff9b09" transform="translate(-117.404 400.953)" d="M 1203.86 282.988 a 3.81 3.81 0 0 1 0.559 4.651 c -1.567 2.586 -5.076 0.971 -5.076 0.971 a 4.568 4.568 0 0 1 0.959 -3.983 A 4.231 4.231 0 0 1 1203.86 282.988 Z" data-name="Path 9"/><path _ngcontent-oyd-c61="" id="Path_10" fill="#ff9b09" transform="translate(-127.572 397.159)" d="M 1210.21 293.825 a 5.35 5.35 0 0 0 2.72 0.085 a 4.853 4.853 0 0 0 2.659 -2.076 a 4.441 4.441 0 0 0 -0.061 -4.76 a 4.573 4.573 0 0 1 1.688 1.032 c 1.117 1.062 2.2 3.043 0.607 5.8 a 4.757 4.757 0 0 1 -5.9 1.53 A 3.356 3.356 0 0 1 1210.21 293.825 Z" data-name="Path 10"/></g></svg>