<svg _ngcontent-oyd-c80="" xmlns="http://www.w3.org/2000/svg" xmlns:xlink="http://www.w3.org/1999/xlink" width="18" height="18" viewBox="0 0 65.141 65.34"><defs _ngcontent-oyd-c80=""><clipPath _ngcontent-oyd-c80="" id="clip-path"><rect _ngcontent-oyd-c80="" width="65.141" height="65.34" fill="none"/></clipPath></defs><g _ngcontent-oyd-c80="" id="Repeat_Grid_1" data-name="Repeat Grid 1" clip-path="url(#clip-path)"><g _ngcontent-oyd-c80="" id="Group_3" data-name="Group 3" transform="translate(-757.532 -436.426)"><path _ngcontent-oyd-c80="" id="Subtraction_2" data-name="Subtraction 2" d="M27,54A27.007,27.007,0,0,1,16.49,2.122,27.007,27.007,0,0,1,37.51,51.878,26.832,26.832,0,0,1,27,54Zm5.451-22.123L28.6,32.7a6.748,6.748,0,0,0,3.262,4.27,11.626,11.626,0,0,0,5.729,1.37,10.188,10.188,0,0,0,6.324-1.861,6.086,6.086,0,0,0,2.442-5.1A6.335,6.335,0,0,0,45.2,27.7c-.77-1.106-2.3-1.955-4.56-2.522L36.9,24.24c-2.031-.5-3.061-1.392-3.061-2.643a2.414,2.414,0,0,1,.975-1.966,4.488,4.488,0,0,1,2.828-.773c2.117,0,3.483.84,4.061,2.5l3.77-.935a5.612,5.612,0,0,0-2.844-3.513,10.3,10.3,0,0,0-5.068-1.24,8.643,8.643,0,0,0-5.607,1.78,5.813,5.813,0,0,0-2.191,4.73,6.448,6.448,0,0,0,.62,2.787,5.048,5.048,0,0,0,1.651,2.022,10.4,10.4,0,0,0,3.191,1.281l4.206,1.1a3.722,3.722,0,0,1,2.208,1.2,2.938,2.938,0,0,1,.516,1.668,2.512,2.512,0,0,1-1.136,2.078,5.426,5.426,0,0,1-3.247.838,6.961,6.961,0,0,1-3.641-.818A3.639,3.639,0,0,1,32.451,31.877ZM9.065,16.006,15.848,38h4.028l6.881-21.994h-3.3L18.3,32.86,13.254,16.006Z" transform="translate(763 442)"/><path _ngcontent-oyd-c80="" id="Path_2" data-name="Path 2" d="M768.4,489.5l2.639,2.463-9.473,9.438h0s-1.527,1.734-3.042.172a1.77,1.77,0,0,1,.2-2.8Z" transform="translate(1580.574 938.646) rotate(180)"/><path _ngcontent-oyd-c80="" id="Path_3" data-name="Path 3" d="M768.4,489.5l2.639,2.463-9.473,9.438h0s-1.527,1.734-3.042.172a1.77,1.77,0,0,1,.2-2.8Z" transform="translate(-0.369 -0.455)"/></g></g></svg>