<svg _ngcontent-oyd-c61="" xmlns="http://www.w3.org/2000/svg" width="18.372" height="17.153" viewBox="0 0 18.372 17.153"><g _ngcontent-oyd-c61="" id="Group_396" data-name="Group 396" transform="translate(-0.045 0.003)"><g _ngcontent-oyd-c61="" id="Group_395" data-name="Group 395"><path _ngcontent-oyd-c61="" id="Path_185" data-name="Path 185" d="M18.11,24.8l-2.791-2.791V18.781a1.056,1.056,0,0,0-2.111,0v1.113L11.13,17.815a2.777,2.777,0,0,0-3.84,0L.31,24.8A1.056,1.056,0,0,0,1.8,26.291l6.979-6.98a.623.623,0,0,1,.854,0l6.98,6.98a1.056,1.056,0,0,0,1.5-1.491Z" transform="translate(-0.001 -17.047)" fill="#333"/><path _ngcontent-oyd-c61="" id="Path_186" data-name="Path 186" d="M75.652,127.9a.518.518,0,0,0-.733,0l-6.139,6.138a.52.52,0,0,0-.152.367v4.477a1.9,1.9,0,0,0,1.9,1.9h3.04v-4.707H77v4.707h3.04a1.9,1.9,0,0,0,1.9-1.9V134.4a.518.518,0,0,0-.152-.367Z" transform="translate(-66.075 -123.632)" fill="#333"/></g></g></svg>